<svg version="1.1" id="Layer_1" xmlns="http://www.w3.org/2000/svg" xmlns:xlink="http://www.w3.org/1999/xlink" x="0px" y="0px"
	 width="100%" viewBox="0 0 444 306" enable-background="new 0 0 444 306" xml:space="preserve">
<path fill="#185AAE" opacity="1.000000" stroke="none" 
	d="
M417.000000,307.000000 
	C279.500000,307.000000 142.499985,306.982147 5.500077,307.094147 
	C1.750564,307.097198 0.900683,306.249695 0.905197,302.499878 
	C1.024567,203.333359 1.022682,104.166634 0.904435,5.000114 
	C0.900352,1.576009 1.576291,0.902533 5.000072,0.905134 
	C150.333313,1.015527 295.666656,1.015527 440.999939,0.905134 
	C444.423706,0.902534 445.099640,1.576010 445.095551,5.000113 
	C444.977356,104.333305 444.977356,203.666702 445.095551,302.999878 
	C445.099640,306.424011 444.444550,307.247650 440.995667,307.103149 
	C433.176056,306.775543 425.333344,307.000000 417.000000,307.000000 
z"/>
<path fill="#F4F7FB" opacity="1.000000" stroke="none" 
	d="
M94.034698,161.188705 
	C93.513611,163.122833 93.502312,164.787476 93.290680,166.426239 
	C92.746056,170.643555 93.836823,173.145309 98.777611,172.286743 
	C100.974045,171.905060 102.606361,172.365799 102.619942,175.313217 
	C102.632996,178.148224 101.002502,178.045670 99.065720,178.034622 
	C92.912262,177.999542 86.758400,178.004669 80.604858,178.031876 
	C78.687744,178.040344 77.018639,178.182907 77.079720,175.310394 
	C77.132797,172.814789 78.193024,171.904160 80.396378,172.284668 
	C85.321007,173.135086 86.062256,170.639435 85.922035,166.424149 
	C85.645714,158.117569 85.660797,149.789658 85.923370,141.482193 
	C86.038010,137.855331 85.162262,136.199310 81.298126,136.707413 
	C79.105095,136.995773 76.884636,137.041473 77.091957,133.588425 
	C77.206894,131.674103 77.782211,130.945526 79.702827,130.960327 
	C89.015633,131.032089 98.345520,130.688156 107.637390,131.143616 
	C116.006180,131.553802 121.660324,137.517410 121.848053,145.045578 
	C122.048103,153.067169 117.276497,158.402786 108.860733,160.092178 
	C104.061279,161.055634 99.240051,160.416885 94.034698,161.188705 
z"/>
<path fill="#F5F8FB" opacity="1.000000" stroke="none" 
	d="
M270.673767,172.228867 
	C272.315918,172.249756 273.487732,172.335861 274.645538,172.244354 
	C277.089142,172.051254 277.236633,173.610748 277.314423,175.423141 
	C277.395691,177.315552 276.714752,178.077225 274.734619,178.050858 
	C268.075897,177.962219 261.414093,177.946777 254.755951,178.055786 
	C252.461151,178.093369 252.029770,177.086411 252.025909,175.060974 
	C252.021622,172.811707 253.050140,171.933563 255.051239,172.288727 
	C260.310486,173.222137 260.953857,170.507370 260.785797,166.090103 
	C260.469482,157.777222 260.526703,149.438843 260.772064,141.121185 
	C260.876740,137.572891 259.721985,136.327011 256.261261,136.704666 
	C254.124313,136.937851 251.958832,137.168274 251.988861,133.649277 
	C252.018112,130.221619 254.219498,131.008133 256.043457,130.999115 
	C264.368134,130.957932 272.694946,130.880798 281.017456,131.023529 
	C288.452850,131.151047 294.255737,135.195038 296.092224,141.182877 
	C298.727875,149.776367 293.643005,158.103256 284.584747,159.933228 
	C281.320038,160.592743 278.012573,160.775497 274.667938,160.784775 
	C267.326324,160.805115 268.179199,159.765991 268.224548,167.515579 
	C268.234253,169.173920 266.887573,171.789658 270.673767,172.228867 
z"/>
<path fill="#EFF3F9" opacity="1.000000" stroke="none" 
	d="
M158.927490,178.034821 
	C156.455307,178.034302 154.455460,178.039322 152.455627,178.031525 
	C150.798492,178.025055 149.055252,178.324936 149.097351,175.666611 
	C149.132019,173.478683 149.252579,172.370575 152.106583,171.799561 
	C157.162933,170.787933 159.955765,166.017990 163.767151,162.917862 
	C164.626129,162.219177 163.871811,161.298325 163.234970,160.851288 
	C159.018738,157.891602 156.972122,152.051239 150.781616,151.663483 
	C148.563446,151.524551 149.262787,149.489120 149.144501,148.103165 
	C148.994919,146.350632 149.535782,145.213242 151.584290,145.236862 
	C155.416656,145.281082 159.255646,145.113480 163.080551,145.285492 
	C164.925415,145.368439 167.540558,144.048965 167.931046,147.761383 
	C168.339111,151.641022 165.674667,150.954422 163.482071,151.165588 
	C168.587036,159.486145 169.001297,159.510986 175.828384,151.998352 
	C175.717636,150.724762 174.688339,150.998886 173.989716,151.062988 
	C171.502838,151.291153 171.406769,149.780914 171.397934,147.925049 
	C171.386963,145.622818 172.636261,145.174164 174.591934,145.216476 
	C178.089981,145.292160 181.592422,145.297943 185.090042,145.211945 
	C187.190094,145.160324 188.628143,145.480438 188.624847,148.106781 
	C188.621902,150.444733 188.130844,151.421402 185.424713,151.930069 
	C180.446823,152.865753 177.853622,157.549728 174.225082,160.601822 
	C172.808380,161.793457 174.538055,162.753510 175.297318,163.296417 
	C179.345322,166.190964 181.338364,171.759872 187.369125,172.179886 
	C189.338104,172.317032 188.423294,174.630096 188.532547,175.997711 
	C188.684937,177.905273 187.346024,178.046921 185.894028,178.038132 
	C182.061157,178.014923 178.221817,178.160568 174.397903,177.974792 
	C172.763275,177.895370 170.256851,179.289658 169.992462,175.744263 
	C169.767578,172.728668 171.326385,172.022583 173.840729,172.001144 
	C168.967545,164.370132 167.701065,164.350494 162.137878,171.812241 
	C163.451202,172.107529 164.905548,172.072968 165.869751,172.743378 
	C167.059387,173.570541 166.593903,175.196014 166.506409,176.498795 
	C166.392853,178.189621 165.044174,178.004990 163.899475,178.024216 
	C162.399948,178.049393 160.899734,178.033218 158.927490,178.034821 
z"/>
<path fill="#F4F7FB" opacity="1.000000" stroke="none" 
	d="
M211.745880,144.985443 
	C213.470947,145.263336 214.805313,145.402084 216.040344,145.828476 
	C221.636765,147.760574 224.418228,151.593903 223.886169,156.486725 
	C223.400131,160.956528 219.196045,164.461121 213.595337,164.967392 
	C208.761490,165.404343 204.042297,164.799088 199.479630,162.914032 
	C199.120911,168.464996 202.147491,172.367371 207.328644,173.067474 
	C211.744019,173.664093 215.984497,173.055038 219.641266,170.294128 
	C221.316376,169.029388 222.222519,169.593201 223.173447,171.138962 
	C224.007324,172.494507 224.658813,173.451035 223.013580,174.904068 
	C217.944305,179.381287 207.056747,180.476624 200.356934,176.941147 
	C193.790894,173.476257 190.927017,167.205231 192.051605,159.315598 
	C193.172058,151.455002 201.444473,143.840256 211.745880,144.985443 
z"/>
<path fill="#F3F6FB" opacity="1.000000" stroke="none" 
	d="
M339.142334,154.306549 
	C344.735229,146.025696 352.489197,143.021393 360.756805,145.638794 
	C369.824371,148.509445 374.787476,157.350540 372.447388,166.463867 
	C370.107513,175.576294 360.738953,180.945419 350.928406,178.796387 
	C341.798462,176.796432 336.060730,168.233261 337.689972,158.925232 
	C337.944733,157.469864 338.554657,156.076675 339.142334,154.306549 
z"/>
<path fill="#F5F8FC" opacity="1.000000" stroke="none" 
	d="
M307.695312,161.000610 
	C307.694519,158.833282 307.565155,157.155045 307.721924,155.503967 
	C307.980621,152.779175 307.076752,151.339890 304.145172,151.749054 
	C301.524384,152.114838 300.647919,150.936035 300.657471,148.368332 
	C300.669037,145.258270 302.805664,146.089157 304.474915,145.992462 
	C305.637238,145.925140 306.818695,146.087982 307.970703,145.960022 
	C312.450775,145.462372 316.326080,145.655975 314.859344,153.111252 
	C318.758118,149.649536 321.605164,146.870575 325.431946,145.582977 
	C331.351807,143.591125 332.919983,144.604248 332.926544,150.558838 
	C332.928406,152.224884 332.807190,153.901459 332.953705,155.554474 
	C333.170929,158.005264 332.532837,159.175110 329.722961,159.105896 
	C327.205658,159.043900 325.946198,158.430969 326.273651,155.733368 
	C326.685883,152.337631 325.101837,152.162384 322.505493,153.375687 
	C316.144592,156.348175 312.727142,164.326004 314.958740,170.860748 
	C315.705688,173.047974 317.412537,172.237930 318.673096,172.185501 
	C321.202148,172.080338 322.236328,172.853699 322.207123,175.550507 
	C322.174225,178.589478 320.208038,178.004639 318.470245,178.012344 
	C313.472229,178.034500 308.473511,177.977768 303.476196,178.040115 
	C301.727631,178.061951 300.485443,177.752136 300.712769,175.632385 
	C300.862671,174.234467 300.405396,172.041153 302.633850,172.365234 
	C308.279175,173.186264 307.923370,169.656754 307.709625,165.999390 
	C307.622314,164.505035 307.695251,163.001343 307.695312,161.000610 
z"/>
<path fill="#F2F6FA" opacity="1.000000" stroke="none" 
	d="
M234.683838,165.988525 
	C234.683029,157.162430 234.593491,148.831528 234.731735,140.504395 
	C234.777084,137.773895 234.044785,136.393585 231.118851,136.746201 
	C228.790955,137.026733 227.362167,136.436264 227.377945,133.581146 
	C227.396759,130.177841 229.719070,131.030411 231.537659,130.990524 
	C241.858704,130.764084 241.859039,130.782547 241.859161,140.871399 
	C241.859268,150.033783 241.976486,159.198502 241.793427,168.357224 
	C241.733215,171.369995 242.516449,172.739487 245.660294,172.255493 
	C248.137726,171.874100 249.243805,172.787170 249.221039,175.514679 
	C249.195953,178.522842 247.292450,178.020309 245.519257,178.023727 
	C240.688202,178.033035 235.857101,178.018173 231.026062,178.030548 
	C229.170273,178.035309 227.323166,178.324265 227.384964,175.405182 
	C227.434753,173.052994 228.268936,171.933792 230.631287,172.257568 
	C235.763641,172.961029 234.568787,169.274567 234.683838,165.988525 
z"/>
<path fill="#EDF2F9" opacity="1.000000" stroke="none" 
	d="
M128.415192,178.026459 
	C124.959061,177.550812 126.179527,175.240280 126.303871,173.707672 
	C126.454094,171.856049 128.269730,172.103226 129.482498,172.273727 
	C132.906403,172.755081 133.266876,170.910522 133.166290,168.172134 
	C133.007507,163.848282 133.003738,159.509827 133.167938,155.186432 
	C133.263901,152.659454 132.547333,151.444260 129.844452,151.755203 
	C127.626404,152.010361 126.064941,151.636703 126.051758,148.667145 
	C126.036697,145.277496 128.242920,146.016541 130.102707,145.971252 
	C140.597855,145.715668 140.597931,145.726517 140.598221,156.211151 
	C140.598328,160.207764 140.735291,164.210526 140.554459,168.198898 
	C140.424667,171.061325 141.076431,172.709366 144.361298,172.248810 
	C146.513794,171.947006 147.737183,172.662064 147.801910,175.209106 
	C147.871414,177.944763 146.410980,178.087128 144.359070,178.060181 
	C139.197678,177.992416 134.034790,178.036667 128.415192,178.026459 
z"/>
<path fill="#F4F7FB" opacity="1.000000" stroke="none" 
	d="
M140.400269,136.703888 
	C139.159195,137.679932 138.102844,137.997513 136.894547,138.034073 
	C134.479660,138.107193 132.164978,137.925827 131.055603,135.362320 
	C130.312317,133.644745 130.858139,132.035721 132.393021,131.014694 
	C134.801544,129.412521 137.428360,129.410187 139.820847,130.935822 
	C142.000107,132.325500 142.249146,134.323303 140.400269,136.703888 
z"/>
<path fill="#1E5EB0" opacity="1.000000" stroke="none" 
	d="
M113.368637,141.091293 
	C115.540558,150.168030 112.311752,154.485413 103.453186,154.983917 
	C93.284729,155.556152 93.284737,155.556137 93.284874,145.410553 
	C93.285004,136.660690 93.284912,136.675446 101.940300,136.723999 
	C106.161232,136.747681 110.346718,136.805008 113.368637,141.091293 
z"/>
<path fill="#1D5EB0" opacity="1.000000" stroke="none" 
	d="
M286.082581,138.785889 
	C291.720306,145.634445 289.480225,152.567352 281.427338,154.516495 
	C277.802124,155.393951 274.125946,154.812759 270.476746,154.982422 
	C268.765015,155.061996 268.117767,154.256287 268.137207,152.583618 
	C268.189484,148.085556 268.163849,143.586517 268.155670,139.087891 
	C268.153229,137.750229 268.606049,136.727386 270.102600,136.797974 
	C275.353058,137.045563 280.801056,135.597214 286.082581,138.785889 
z"/>
<path fill="#2160B1" opacity="1.000000" stroke="none" 
	d="
M206.016785,151.475388 
	C208.646301,150.652374 210.965225,150.447418 213.243484,151.097702 
	C215.113068,151.631302 216.499741,152.866745 216.632553,154.929337 
	C216.766129,157.004089 215.565887,158.210495 213.699234,159.042755 
	C209.562119,160.887238 205.535843,159.541595 201.515060,158.737976 
	C199.630524,158.361328 199.856201,157.023148 200.752869,155.722672 
	C202.005219,153.906311 203.615387,152.522049 206.016785,151.475388 
z"/>
<path fill="#1B5CAF" opacity="1.000000" stroke="none" 
	d="
M363.436951,169.170990 
	C358.876312,173.584900 353.812531,174.453049 349.727081,171.813644 
	C345.360626,168.992722 343.662567,162.536118 345.846466,157.058136 
	C347.731476,152.329727 351.724701,150.132172 357.065735,150.883881 
	C362.212036,151.608185 365.470032,156.029877 365.435608,162.169388 
	C365.422211,164.558029 364.907776,166.788422 363.436951,169.170990 
z"/>
</svg>